<?xml version="1.0" encoding="UTF-8" standalone="no"?> <svg xmlns:dc="http://purl.org/dc/elements/1.1/" xmlns:cc="http://creativecommons.org/ns#" xmlns:rdf="http://www.w3.org/1999/02/22-rdf-syntax-ns#" xmlns:svg="http://www.w3.org/2000/svg" xmlns="http://www.w3.org/2000/svg" viewBox="0 0 259.12 81.986664" height="81.986664" width="259.12" xml:space="preserve" id="svg2"><metadata id="metadata8"></metadata><defs id="defs6"><clipPath id="clipPath20"><path id="path18" d="M 0,0 H 1943 V 614.855 H 0 Z"></path></clipPath></defs><g transform="matrix(1.3333333,0,0,-1.3333333,0,81.986667)" id="g10"><g transform="scale(0.1)" id="g12"><g id="g14"><g clip-path="url(#clipPath20)" id="g16"><path id="path22" style="fill:#0e88d3;fill-opacity:1;fill-rule:nonzero;stroke:none" d="m 236.289,180.695 c 1.586,0 3.051,-0.55 4.399,-1.652 1.343,-1.105 2.035,-2.504 2.07,-4.195 0.035,-1.692 -0.606,-3.121 -1.914,-4.293 -1.313,-1.176 -2.832,-1.762 -4.555,-1.762 h -42.961 c -1.656,0 -3.359,0.137 -5.121,0.414 -1.762,0.277 -3.281,0.898 -4.555,1.863 -1.281,0.965 -1.953,2.364 -2.019,4.192 -0.067,1.828 0.273,3.398 1.035,4.711 0.758,1.312 1.863,2.726 3.312,4.246 l 35.504,37.574 c 0.555,0.551 0.969,1.07 1.243,1.551 0.277,0.48 0.363,0.844 0.261,1.09 -0.105,0.238 -0.246,0.429 -0.414,0.57 -0.172,0.137 -1.261,0.207 -3.261,0.207 h -32.297 c -1.036,0 -2.243,0.43 -3.621,1.293 -1.383,0.859 -2.071,2.363 -2.071,4.504 0,2.137 0.606,3.777 1.813,4.914 1.203,1.141 2.5,1.711 3.879,1.711 h 44.097 c 2.899,0 5.258,-0.313 7.09,-0.934 1.824,-0.621 3.09,-1.465 3.777,-2.535 0.692,-1.07 1,-2.297 0.93,-3.676 -0.066,-1.312 -0.359,-2.433 -0.879,-3.367 -0.515,-0.93 -1.5,-2.187 -2.949,-3.777 L 203.68,184.219 c -1.172,-1.313 -1.828,-2.141 -1.965,-2.485 -0.141,-0.347 -0.07,-0.589 0.207,-0.726 0.066,-0.07 0.344,-0.106 0.824,-0.106 l 1.766,-0.207 h 31.777 v 0"></path><path id="path24" style="fill:#0e88d3;fill-opacity:1;fill-rule:nonzero;stroke:none" d="m 261.77,197.984 v -12.629 c 0,-1.242 0.156,-2.105 0.464,-2.585 0.313,-0.485 0.743,-0.829 1.293,-1.036 0.555,-0.207 1.414,-0.312 2.59,-0.312 h 37.887 c 1.242,0 2.535,-0.449 3.883,-1.348 1.343,-0.894 2.156,-2.379 2.429,-4.449 0.278,-2.07 -0.363,-3.641 -1.914,-4.711 -1.55,-1.066 -3.019,-1.605 -4.398,-1.605 h -42.543 c -1.52,0 -3.297,0.207 -5.332,0.621 -2.035,0.418 -3.676,1.312 -4.918,2.695 -1.242,1.379 -1.984,2.777 -2.227,4.191 -0.242,1.414 -0.359,3.399 -0.359,5.954 v 42.128 c 0,2.141 0.172,4 0.52,5.59 0.339,1.586 1.082,2.899 2.222,3.934 1.137,1.035 2.571,1.828 4.293,2.383 1.727,0.547 3.59,0.828 5.594,0.828 h 41.609 c 1.383,0 2.727,-0.52 4.039,-1.555 1.309,-1.035 1.985,-2.625 2.02,-4.762 0.031,-2.14 -0.711,-3.625 -2.227,-4.453 -1.519,-0.828 -2.797,-1.242 -3.832,-1.242 h -36.746 c -1.656,0 -2.711,-0.191 -3.156,-0.566 -0.449,-0.383 -0.762,-0.778 -0.934,-1.192 -0.172,-0.414 -0.257,-1.242 -0.257,-2.484 v -11.387 h 25.152 c 1.312,0 2.695,-0.433 4.141,-1.293 1.449,-0.863 2.191,-2.367 2.226,-4.504 0.035,-2.14 -0.676,-3.711 -2.121,-4.711 -1.449,-1 -2.863,-1.5 -4.246,-1.5 H 261.77 v 0"></path><path id="path26" style="fill:#0e88d3;fill-opacity:1;fill-rule:nonzero;stroke:none" d="m 354.121,188.566 11.074,36.645 c 0.969,3.242 2.004,5.59 3.11,7.035 1.101,1.449 2.601,2.676 4.504,3.676 1.894,1 3.914,1.504 6.054,1.504 2.274,-0.074 4.36,-0.711 6.258,-1.918 1.899,-1.207 3.367,-2.899 4.402,-5.07 1.036,-2.176 1.551,-4.918 1.551,-8.231 v -47.102 c 0,-1.515 -0.515,-2.863 -1.551,-4.035 -1.035,-1.172 -2.347,-1.777 -3.933,-1.812 -1.59,-0.031 -3.02,0.5 -4.297,1.605 -1.273,1.106 -1.914,2.52 -1.914,4.242 v 48.032 c 0,1.101 -0.086,1.797 -0.258,2.074 -0.176,0.273 -0.414,0.43 -0.726,0.465 -0.309,0.031 -0.606,-0.192 -0.879,-0.672 l -0.309,-1.039 -14.492,-47.512 c -0.692,-2.14 -1.641,-3.848 -2.848,-5.125 -1.207,-1.273 -2.898,-1.965 -5.07,-2.07 -2.176,-0.102 -4.004,0.414 -5.488,1.555 -1.489,1.136 -2.606,2.914 -3.368,5.332 l -15.628,47.304 c -0.415,1.102 -0.758,1.723 -1.036,1.864 -0.273,0.136 -0.515,0.207 -0.722,0.207 -0.414,-0.141 -0.672,-0.364 -0.778,-0.672 -0.101,-0.313 -0.156,-0.817 -0.156,-1.504 v -48.961 c 0,-1.176 -0.5,-2.348 -1.5,-3.52 -1,-1.172 -2.519,-1.777 -4.555,-1.812 -2.035,-0.031 -3.453,0.605 -4.246,1.918 -0.793,1.308 -1.187,2.445 -1.187,3.414 v 47.719 c 0,2.968 0.379,5.433 1.137,7.402 0.761,1.969 2.003,3.676 3.726,5.125 1.727,1.449 3.867,2.344 6.422,2.691 2.48,0.274 4.793,-0.14 6.93,-1.242 2.14,-1.105 3.812,-2.605 5.023,-4.504 1.207,-1.898 2.192,-3.949 2.949,-6.156 l 11.801,-36.852 v 0"></path><path id="path28" style="fill:#0e88d3;fill-opacity:1;fill-rule:nonzero;stroke:none" d="m 413.348,231.215 v -55.59 c 0,-1.59 -0.637,-3.09 -1.914,-4.504 -1.278,-1.414 -3.055,-2.086 -5.332,-2.019 -2.414,0 -4.231,0.746 -5.434,2.226 -1.207,1.485 -1.813,2.914 -1.813,4.297 v 55.59 c 0,1.652 0.708,3.086 2.122,4.293 1.414,1.207 3.109,1.828 5.074,1.863 1.965,0.031 3.676,-0.59 5.125,-1.863 1.449,-1.278 2.172,-2.707 2.172,-4.293 v 0"></path><path id="path30" style="fill:#0e88d3;fill-opacity:1;fill-rule:nonzero;stroke:none" d="m 478.992,196.535 c 2.555,0.067 4.438,-0.555 5.645,-1.863 1.203,-1.313 1.863,-2.641 1.965,-3.984 0.105,-1.344 -0.536,-3.227 -1.914,-5.641 -2.555,-4.352 -5.161,-7.746 -7.817,-10.199 -2.656,-2.45 -6.019,-4.243 -10.094,-5.383 -4.07,-1.137 -8.246,-1.672 -12.523,-1.602 -4.969,0 -9.055,0.567 -12.266,1.707 -3.207,1.137 -6.09,2.657 -8.644,4.555 -2.555,1.898 -4.864,4.156 -6.934,6.777 -2.07,2.625 -3.625,5.782 -4.66,9.477 -1.035,3.687 -1.551,7.141 -1.551,10.348 0,3.211 0.242,6.195 0.727,8.953 0.683,3.523 1.914,6.902 3.672,10.144 1.757,3.246 4.246,6.266 7.453,9.059 3.211,2.797 6.765,4.918 10.66,6.367 3.898,1.449 7.957,2.242 12.164,2.383 4.348,0.066 8.039,-0.414 11.074,-1.449 3.039,-1.039 6.231,-2.555 9.578,-4.555 3.348,-2.008 5.758,-4.024 7.243,-6.059 1.488,-2.035 2.246,-3.882 2.281,-5.539 0.035,-1.652 -0.727,-3.191 -2.281,-4.605 -1.551,-1.414 -3.223,-2.02 -5.02,-1.809 -1.445,0.137 -2.895,0.895 -4.348,2.274 l -4.035,4.347 c -1.308,1.242 -3.363,2.535 -6.156,3.883 -2.797,1.348 -5.992,1.949 -9.578,1.813 -4.625,-0.278 -8.383,-1.696 -11.285,-4.246 -2.895,-2.551 -5.051,-5.434 -6.465,-8.641 -1.418,-3.211 -2.141,-6.883 -2.176,-11.024 -0.035,-4.14 0.637,-7.765 2.02,-10.871 1.449,-3.519 3.726,-6.386 6.828,-8.589 3.109,-2.211 6.867,-3.418 11.285,-3.625 4.621,-0.348 8.23,0.292 10.816,1.914 2.59,1.621 4.434,3.175 5.539,4.66 1.106,1.48 1.844,2.601 2.227,3.363 0.379,0.762 0.914,1.914 1.601,3.469 0.692,1.551 1.418,2.621 2.176,3.207 0.758,0.586 1.692,0.914 2.793,0.984 v 0"></path><path id="path32" style="fill:#0e88d3;fill-opacity:1;fill-rule:evenodd;stroke:none" d="m 224.168,276.453 85.816,92.488 97.145,46.672 94.281,80.785 -182.629,-220.671 -94.613,0.726 v 0"></path><path id="path34" style="fill:#0e88d3;fill-opacity:1;fill-rule:evenodd;stroke:none" d="m 463.695,509.664 c -37.738,26.363 -83.675,41.883 -133.152,41.883 -127.879,0 -232.168,-103.567 -232.168,-230.535 0,-126.969 104.289,-230.5315 232.168,-230.5315 127.883,0 232.172,103.5625 232.172,230.5315 0,39.773 -10.238,77.246 -28.231,109.961 -15.101,-58.352 -25.546,-120.575 -32.773,-185.61 L 346.355,293.023 531.441,524.805 403.609,420.227 306.512,372.93 247.84,310.133 102.086,348.516 c 130.523,41.949 252.676,93.726 361.609,161.148 z m -173.652,66.297 c 67.875,0 130.414,-23.359 179.922,-62.391 48.504,30.434 94.351,64.016 137.09,101.285 -30.481,-52.863 -53.293,-111.867 -70.391,-175.613 27.504,-44.008 43.41,-95.844 43.41,-151.265 C 580.074,129.359 449.793,0 290.043,0 130.293,0 0,129.359 0,287.977 0,446.594 130.293,575.961 290.043,575.961 v 0"></path><path id="path36" style="fill:#ffffff;fill-opacity:1;fill-rule:nonzero;stroke:none" d="m 1199.96,257.273 65.96,89.071 c 3.21,4.332 8.01,11.875 12.28,15.519 10.37,8.848 26.43,7.223 26.43,-8.453 V 217.613 c 0,-19.972 -29.4,-18.726 -29.4,-0.379 v 97.598 l -74.72,-100.894 c -10.55,-14.231 -29.95,-15.141 -29.95,3.675 v 134.965 c 0,20.973 29.4,18.637 29.4,0 z m -157.35,-39.726 -30.98,98.773 -12.958,-95.437 c -0.442,-3.215 -0.641,-6.317 -2.067,-9.297 -6.066,-12.633 -26.343,-10.438 -27.453,3.973 -0.207,2.718 0.446,5.855 0.836,8.539 l 17.645,121.617 c 0.699,4.812 0.898,8.265 3.972,12.664 8.321,11.894 27.875,12.254 35.345,-0.699 1.67,-2.891 2.61,-6.75 3.58,-9.918 l 27.99,-91.016 26.84,87.414 c 1.09,3.57 2.55,9.645 4.47,13.156 7.97,14.567 30.35,12.543 37.21,-1.668 1.71,-3.55 1.99,-7.382 2.55,-11.23 l 17.36,-119.684 c 0.58,-3.941 1.52,-7.945 0.48,-11.894 -3.36,-12.856 -23.15,-12.93 -27.74,0.59 -1.35,4.019 -1.75,10.586 -2.31,14.683 l -11.98,88.207 -31.23,-99.578 c -0.62,-1.961 -1.23,-4.304 -2.18,-6.129 -5.54,-10.55 -21.45,-10.84 -26.99,0.071 -1.01,1.988 -1.73,4.754 -2.39,6.863 z m -179.524,1.73 V 350.91 c 0,7.692 4.969,15.067 13.266,15.067 h 60.82 c 18.582,0 17.555,-26.793 -0.477,-26.793 h -44.211 v -36.528 h 41.786 c 18.683,0 18.621,-25.75 -0.442,-25.75 h -41.344 v -45.48 h 44.649 c 17.828,0 18.742,-26.793 -1.281,-26.793 h -58.176 c -9.227,0 -14.59,5.504 -14.59,14.644 z m -62.195,52.922 c -7.485,5.781 -17.762,4.914 -26.715,4.914 -8.875,0 -19.875,1.246 -19.875,12.739 0,3.453 1.094,6.277 3.285,8.453 4.602,4.601 10.719,3.957 17.047,4.25 7.961,0.367 17.281,-0.078 23.258,6.199 14.718,15.473 0.777,32.723 -16.227,32.723 -24.601,0 -27.332,-14.582 -40.762,-14.582 -8.25,0 -12.386,4.328 -12.386,12.98 0,12.156 17.589,20.508 26.777,23.504 7.859,2.562 16.656,3.848 26.371,3.848 28.094,0 51.172,-13.567 51.172,-44.223 0,-8.215 -1.914,-15.305 -5.738,-21.266 -2.293,-3.566 -5.25,-6.687 -8.86,-9.359 5.305,-2.965 9.567,-6.856 12.785,-11.668 4.727,-7.078 7.102,-16.035 7.102,-26.856 0,-16.089 -5.215,-28.558 -15.641,-37.398 -5.164,-4.383 -11.207,-7.668 -18.109,-9.848 -6.793,-2.144 -14.367,-3.222 -22.711,-3.222 -4.84,0 -9.695,0.351 -14.551,1.043 -4.758,0.679 -9.566,1.73 -14.402,3.133 -10.773,3.105 -30.145,11.355 -30.145,24.425 0,8.649 4.129,12.977 12.387,12.977 8.32,0 12.809,-5.707 19.453,-9.684 5.422,-3.25 10.157,-5.043 16.422,-6.011 40.719,-6.352 46.207,31.796 30.063,42.929 z M 1888.74,214.355 c -3.03,-17.125 -28.64,-13.582 -28.64,3.043 v 133.301 c 0,1.719 0.26,3.418 0.76,5.067 1.8,5.847 6.17,10 12.51,10 h 55.75 c 19.08,0 19.13,-25.754 -0.04,-25.754 h -39.57 l -0.01,-109.168 c 0,-4.793 0.04,-11.946 -0.76,-16.489 z m -88.51,88.094 v 49.082 c 0,21.414 29.4,20.203 29.4,0 V 218.234 c 0,-21.843 -29.4,-18.875 -29.4,-0.035 v 58.496 h -71.96 v -58.496 c 0,-19.855 -29.4,-21.133 -29.4,0.035 v 133.297 c 0,19.594 29.4,22.164 29.4,0 v -49.082 h 71.96 z m -255.32,-17.355 c 0,31.386 14.36,62.605 43.95,75.652 9.46,4.18 20.11,6.27 31.89,6.27 14.26,0 43.32,-6.211 50.57,-21.383 5.24,-12.328 -6.23,-22.817 -17.47,-17.524 -1.57,0.735 -3.36,1.809 -5.35,3.2 l -7.71,5.367 c -11.69,6.207 -28.11,6.566 -39.45,0.117 -11.21,-6.395 -19.14,-19.633 -22.7,-31.73 -6.95,-23.543 -0.94,-58.645 22.25,-71.368 16.7,-9.175 36.38,-3.355 51.78,5.215 10.5,5.207 23.22,5.098 23.22,-9.844 0,-2.078 -0.4,-4.156 -1.3,-6.035 -2.34,-5.035 -9.33,-9.199 -13.88,-11.418 -20.88,-10.144 -51.42,-11.379 -72.02,-2.05 -29.07,13.156 -43.78,44.589 -43.78,75.531 z m -209.81,-67.86 v 135.313 c 0,19.07 29.4,20.211 29.4,0.449 v -45.308 l 58.02,50.269 c 2.46,2.121 5.27,4.828 8.05,6.563 15.01,9.32 28.24,-6.903 19.6,-18.665 -1.65,-2.25 -4.61,-4.492 -6.76,-6.316 l -58.8,-49.898 56.16,-50.899 c 4.78,-4.328 10.83,-9.105 15.12,-13.793 12.37,-13.515 -7.61,-32.07 -24.58,-16.035 l -0.02,0.016 -66.79,61.84 v -53.504 c 0,-20.414 -29.4,-17.821 -29.4,-0.032 v 0"></path></g></g></g></g></svg> 